<?xml version="1.0" standalone="no"?><!DOCTYPE svg PUBLIC "-//W3C//DTD SVG 1.1//EN" "http://www.w3.org/Graphics/SVG/1.1/DTD/svg11.dtd"><svg xmlns:xlink="http://www.w3.org/1999/xlink" version="1.1" class="highcharts-root" style="font-family: Helvetica, Arial, sans-serif; font-size: 1rem;" xmlns="http://www.w3.org/2000/svg" width="478" height="400" viewBox="0 0 478 400" aria-label="Interactive chart" aria-hidden="false"><desc aria-hidden="true">Created with Highcharts 11.2.0</desc><defs aria-hidden="true"><filter id="highcharts-drop-shadow-166"><feDropShadow dx="1" dy="1" flood-color="#000000" flood-opacity="0.75" stdDeviation="2.5"></feDropShadow></filter><clipPath id="highcharts-1r59u3h-983-"><rect x="0" y="0" width="458" height="261" fill="none"></rect></clipPath></defs><rect fill="#ffffff" class="highcharts-background" filter="none" x="0" y="0" width="478" height="400" rx="0" ry="0" aria-hidden="true"></rect><rect fill="none" class="highcharts-plot-background" x="10" y="63" width="458" height="261" filter="none" aria-hidden="true"></rect><g class="highcharts-pane-group" data-z-index="0" aria-hidden="true"></g><rect fill="none" class="highcharts-plot-border" data-z-index="1" stroke="#cccccc" stroke-width="0" x="10" y="63" width="458" height="261" aria-hidden="true"></rect><g class="highcharts-series-group" data-z-index="3" filter="none" aria-hidden="false"><g class="highcharts-series highcharts-series-0 highcharts-pie-series" data-z-index="0.1" opacity="1" transform="translate(10,63) scale(1 1)" filter="none" clip-path="none" aria-hidden="false"><path fill="#a34aa1" d="M 228.9760762000878 13.038306552085672 A 3 3 0 0 1 232.05206106053248 10.038657971601609 A 120.5 120.5 0 1 1 148.851737272051 220.4805866934177 A 3 3 0 0 1 148.65862559532476 216.1884680617398 L 229 130.5 A 0 0 0 0 1 229 130.5 A 0 0 0 1 0 229 130.5 A 0 0 0 0 1 229 130.5 Z" transform="translate(0,0)" stroke="#ffffff" stroke-width="1" opacity="1" stroke-linejoin="round" class="highcharts-point highcharts-color-0" tabindex="-1" role="img" aria-label="Community Liquidity Providers, 62. Column 2." style="outline: none;"></path><path fill="#688cbb" d="M 148.57297731222832 216.1080838564949 A 3 3 0 0 1 144.27724605315186 216.18725088169083 A 120.5 120.5 0 0 1 168.19517179290204 26.46624169671989 A 3 3 0 0 1 172.3368432282623 27.60910310109314 L 229 130.5 A 0 0 0 0 1 229 130.5 A 0 0 0 0 0 229 130.5 A 0 0 0 0 1 229 130.5 Z" transform="translate(0,0)" stroke="#ffffff" stroke-width="1" opacity="1" stroke-linejoin="round" class="highcharts-point highcharts-color-1" tabindex="-1" role="img" aria-label="Shareholders, 30. Column 2." style="outline: none;"></path><path fill="#aa4c48" d="M 172.43976243958878 27.552491399209416 A 3 3 0 0 1 173.69210659938926 23.442599846686534 A 120.5 120.5 0 0 1 203.30062095872321 12.772382522651966 A 3 3 0 0 1 206.8867978689251 15.138584043406325 L 229 130.5 A 0 0 0 0 1 229 130.5 A 0 0 0 0 0 229 130.5 A 0 0 0 0 1 229 130.5 Z" transform="translate(0,0)" stroke="#ffffff" stroke-width="1" opacity="1" stroke-linejoin="round" class="highcharts-point highcharts-color-2" tabindex="-1" role="img" aria-label="Community Reserve, 5. Column 2." style="outline: none;"></path><path fill="#57a050" d="M 207.00217032225495 15.116528525663938 A 3 3 0 0 1 209.4626858078892 11.594393092004509 A 120.5 120.5 0 0 1 225.75608970260694 10.043671623353603 A 3 3 0 0 1 228.83684806092492 13.038417423206923 L 229 130.5 A 0 0 0 0 1 229 130.5 A 0 0 0 0 0 229 130.5 A 0 0 0 0 1 229 130.5 Z" transform="translate(0,0)" stroke="#ffffff" stroke-width="1" opacity="1" stroke-linejoin="round" class="highcharts-point highcharts-color-3" tabindex="-1" role="img" aria-label="Employees, 3. Column 2." style="outline: none;"></path></g><g class="highcharts-markers highcharts-series-0 highcharts-pie-series" data-z-index="0.1" opacity="1" transform="translate(10,63) scale(1 1)" clip-path="none" aria-hidden="true"></g></g><text x="239" text-anchor="middle" class="highcharts-title" data-z-index="4" style="font-size: 1.2em; color: rgb(51, 51, 51); font-weight: bold; fill: rgb(51, 51, 51);" y="25" aria-hidden="true">CRV Tokenomics</text><text x="239" text-anchor="middle" class="highcharts-subtitle" data-z-index="4" style="color: rgb(102, 102, 102); font-size: 0.8em; fill: rgb(102, 102, 102);" y="47" aria-hidden="true">Token Distribution</text><text x="10" text-anchor="start" class="highcharts-caption" data-z-index="4" style="color: rgb(102, 102, 102); font-size: 0.8em; fill: rgb(102, 102, 102);" y="397" aria-hidden="true"></text><g class="highcharts-legend highcharts-no-tooltip" data-z-index="7" transform="translate(27,336)" aria-hidden="true"><rect fill="none" class="highcharts-legend-box" rx="0" ry="0" stroke="#999999" stroke-width="0" filter="none" x="0" y="0" width="423" height="49"></rect><g data-z-index="1"><g><g class="highcharts-legend-item highcharts-pie-series highcharts-color-0" data-z-index="1" transform="translate(8,3)"><text x="21" text-anchor="start" data-z-index="2" style="color: rgb(51, 51, 51); cursor: pointer; font-size: 0.8em; text-decoration: none; fill: rgb(51, 51, 51);" y="17">Community Liquidity Providers</text><rect x="2" y="6" rx="6" ry="6" width="12" height="12" fill="#a34aa1" class="highcharts-point" data-z-index="3"></rect></g><g class="highcharts-legend-item highcharts-pie-series highcharts-color-1" data-z-index="1" transform="translate(221.8671875,3)"><text x="21" y="17" text-anchor="start" data-z-index="2" style="color: rgb(51, 51, 51); cursor: pointer; font-size: 0.8em; text-decoration: none; fill: rgb(51, 51, 51);">Shareholders</text><rect x="2" y="6" rx="6" ry="6" width="12" height="12" fill="#688cbb" class="highcharts-point" data-z-index="3"></rect></g><g class="highcharts-legend-item highcharts-pie-series highcharts-color-2" data-z-index="1" transform="translate(8,22)"><text x="21" y="17" text-anchor="start" data-z-index="2" style="color: rgb(51, 51, 51); cursor: pointer; font-size: 0.8em; text-decoration: none; fill: rgb(51, 51, 51);">Community Reserve</text><rect x="2" y="6" rx="6" ry="6" width="12" height="12" fill="#aa4c48" class="highcharts-point" data-z-index="3"></rect></g><g class="highcharts-legend-item highcharts-pie-series highcharts-color-3" data-z-index="1" transform="translate(221.8671875,22)"><text x="21" y="17" text-anchor="start" data-z-index="2" style="color: rgb(51, 51, 51); cursor: pointer; font-size: 0.8em; text-decoration: none; fill: rgb(51, 51, 51);">Employees</text><rect x="2" y="6" rx="6" ry="6" width="12" height="12" fill="#57a050" class="highcharts-point" data-z-index="3"></rect></g></g></g></g><text x="468" class="highcharts-credits" text-anchor="end" data-z-index="8" y="395" style="cursor: pointer; color: rgb(153, 153, 153); font-size: 0.6em; fill: rgb(153, 153, 153);" aria-label="Chart credits: Highcharts.com" aria-hidden="false">Highcharts.com</text></svg>