<svg id="svg" version="1.1" xmlns="http://www.w3.org/2000/svg" xmlns:xlink="http://www.w3.org/1999/xlink" width="400" height="400" viewBox="0, 0, 400,400"><g id="svgg"><path id="path0" d="M61.246 136.025 L 61.200 161.050 62.300 162.100 C 64.240 163.951,64.749 164.000,81.997 164.000 L 98.342 164.000 99.171 162.946 C 100.479 161.284,100.473 114.709,99.165 113.046 L 98.330 111.984 79.975 112.092 C 63.937 112.186,61.599 112.124,61.456 111.600 C 61.366 111.270,61.272 122.261,61.246 136.025 M261.246 136.025 L 261.200 161.050 262.300 162.100 C 264.240 163.951,264.749 164.000,281.997 164.000 L 298.342 164.000 299.171 162.946 C 300.238 161.590,300.504 113.316,299.450 112.441 C 299.050 112.110,293.786 112.014,280.260 112.092 C 263.969 112.186,261.599 112.124,261.456 111.600 C 261.366 111.270,261.272 122.261,261.246 136.025 M21.246 299.500 L 21.200 400.000 178.599 400.000 L 335.998 400.000 335.998 300.449 C 335.999 217.211,335.910 200.823,335.457 200.448 C 335.058 200.116,293.754 200.025,178.268 200.099 C 39.308 200.189,21.602 200.132,21.456 199.600 C 21.366 199.270,21.272 244.225,21.246 299.500 M177.200 237.400 L 179.280 238.800 200.240 238.800 L 221.200 238.800 221.200 280.000 L 221.200 321.200 200.049 321.200 C 181.299 321.200,178.839 321.271,178.376 321.829 C 176.602 323.966,176.258 324.000,156.147 324.000 C 139.323 324.000,137.390 323.934,136.731 323.338 C 135.651 322.360,135.583 237.923,136.662 236.731 C 137.286 236.042,138.422 236.000,156.222 236.000 L 175.120 236.000 177.200 237.400 " stroke="none" fill="#fcb42c" fill-rule="evenodd"></path><path id="path1" d="M136.870 36.926 C 136.003 37.849,136.000 37.910,136.000 56.264 C 136.000 73.593,135.957 74.715,135.269 75.338 C 134.613 75.931,132.836 76.000,118.138 76.000 L 101.739 76.000 100.870 76.926 L 100.000 77.852 100.000 119.872 C 100.000 161.777,100.002 161.895,100.829 162.946 L 101.658 164.000 117.929 163.970 C 134.920 163.938,135.556 163.879,137.727 162.142 L 138.800 161.285 138.800 120.064 L 138.800 78.843 157.986 78.721 C 175.773 78.609,177.224 78.548,177.886 77.886 C 178.548 77.224,178.609 75.772,178.721 57.961 L 178.843 38.749 177.749 37.874 C 175.533 36.103,175.053 36.062,155.970 36.030 L 137.739 36.000 136.870 36.926 M338.497 111.500 C 338.421 111.891,334.418 112.001,320.100 112.006 C 301.230 112.012,301.229 112.013,300.460 113.474 C 299.487 115.322,299.842 161.692,300.839 162.958 L 301.678 164.025 318.569 163.912 L 335.460 163.800 336.940 162.800 C 338.945 161.446,338.835 163.145,338.707 135.600 C 338.645 122.070,338.550 111.225,338.497 111.500 M378.400 199.600 C 378.400 199.861,371.363 200.002,358.100 200.006 C 346.935 200.009,337.602 200.144,337.360 200.306 C 335.999 201.215,336.000 201.115,336.000 301.174 L 336.000 400.000 357.400 400.000 L 378.800 400.000 378.800 299.600 C 378.800 244.380,378.710 199.200,378.600 199.200 C 378.490 199.200,378.400 199.380,378.400 199.600 M136.982 236.982 L 136.000 237.964 136.000 280.000 L 136.000 322.036 136.982 323.018 L 137.964 324.000 155.995 324.000 C 175.349 324.000,175.707 323.966,177.895 321.911 L 178.800 321.061 178.800 280.000 L 178.800 238.939 177.895 238.089 C 175.707 236.034,175.349 236.000,155.995 236.000 L 137.964 236.000 136.982 236.982 " stroke="none" fill="#1c7cfc" fill-rule="evenodd"></path><path id="path2" d="M97.200 16.577 L 97.200 33.153 80.014 33.277 C 64.146 33.391,62.773 33.455,62.114 34.114 C 61.406 34.823,60.714 107.331,61.381 111.000 L 61.599 112.200 79.964 112.092 L 98.330 111.984 99.165 113.046 L 100.000 114.108 100.000 95.924 L 100.000 77.739 100.926 76.870 C 101.845 76.006,101.963 76.000,118.264 76.000 C 133.656 76.000,134.717 75.955,135.338 75.269 C 135.934 74.610,136.000 72.697,136.000 56.138 L 136.000 37.739 136.926 36.870 C 137.848 36.003,137.921 36.000,155.866 36.000 C 174.851 36.000,175.551 36.060,177.731 37.864 L 178.861 38.800 200.009 38.800 L 221.157 38.800 221.279 57.986 C 221.391 75.773,221.452 77.224,222.114 77.886 C 222.776 78.548,224.227 78.609,242.014 78.721 L 261.200 78.843 261.228 94.921 C 261.244 103.765,261.379 111.270,261.528 111.600 C 261.764 112.121,264.275 112.200,280.588 112.200 L 299.376 112.200 299.837 113.123 C 300.252 113.956,300.324 113.976,300.571 113.331 C 300.722 112.937,300.655 112.552,300.423 112.474 C 300.130 112.377,300.000 100.830,300.000 74.829 C 300.000 39.003,299.967 37.294,299.269 36.662 C 298.613 36.069,296.836 36.000,282.138 36.000 L 265.739 36.000 264.870 35.074 C 264.005 34.154,264.000 34.054,264.000 17.074 L 264.000 0.000 180.600 0.000 L 97.200 0.000 97.200 16.577 M23.730 161.487 C 21.354 161.785,21.411 161.348,21.275 180.361 C 21.207 189.952,21.251 198.340,21.375 199.000 L 21.599 200.200 178.488 200.200 L 335.376 200.200 335.837 201.123 C 336.252 201.956,336.324 201.976,336.571 201.331 C 336.722 200.937,336.655 200.552,336.423 200.474 C 335.851 200.284,335.836 165.684,336.407 164.180 C 336.770 163.226,336.737 163.147,336.107 163.454 C 335.718 163.644,327.812 163.851,318.539 163.912 L 301.678 164.025 300.839 162.958 L 300.000 161.892 299.171 162.946 L 298.342 164.000 281.958 164.000 C 264.549 164.000,263.915 163.938,262.238 162.055 L 261.476 161.200 200.169 161.200 L 138.861 161.200 137.731 162.136 C 135.573 163.923,134.746 164.000,117.769 164.000 L 101.658 164.000 100.829 162.946 L 100.000 161.892 99.171 162.946 L 98.342 164.000 81.958 164.000 C 64.549 164.000,63.915 163.938,62.238 162.055 C 61.518 161.247,29.427 160.774,23.730 161.487 " stroke="none" fill="#e4ecec" fill-rule="evenodd"></path><path id="path3" d="M264.000 17.130 L 264.000 34.261 264.926 35.130 C 265.845 35.994,265.963 36.000,282.264 36.000 C 297.656 36.000,298.717 36.045,299.338 36.731 C 299.944 37.401,300.000 40.621,300.000 74.831 L 300.000 112.200 319.088 112.081 C 333.416 111.992,338.254 111.843,338.488 111.481 C 339.237 110.329,338.650 34.878,337.886 34.114 C 337.227 33.455,335.854 33.391,319.986 33.277 L 302.800 33.153 302.800 16.577 L 302.800 0.000 283.400 0.000 L 264.000 0.000 264.000 17.130 M337.724 162.111 C 336.067 163.792,336.000 164.590,336.000 182.726 L 336.000 200.200 357.087 200.083 C 373.009 199.995,378.252 199.848,378.494 199.483 C 379.232 198.367,378.656 162.883,377.886 162.114 C 377.223 161.451,375.794 161.394,357.886 161.311 L 338.600 161.221 337.724 162.111 " stroke="none" fill="#fc545c" fill-rule="evenodd"></path></g></svg>